<?xml version="1.0" encoding="UTF-8" standalone="no" ?>
<!DOCTYPE svg PUBLIC "-//W3C//DTD SVG 1.1//EN" "http://www.w3.org/Graphics/SVG/1.1/DTD/svg11.dtd">
<svg xmlns="http://www.w3.org/2000/svg" xmlns:xlink="http://www.w3.org/1999/xlink" version="1.1" width="500" height="500" viewBox="0 0 500 500" xml:space="preserve">
<desc>Created with Fabric.js 4.6.0</desc>
<defs>
</defs>
<g transform="matrix(0.81 0 0 1.01 230.57 251.75)" id="TNi6wr-zMyPxyJ8xrPGQ1"  >
<path style="stroke: none; stroke-width: 1; stroke-dasharray: none; stroke-linecap: butt; stroke-dashoffset: 0; stroke-linejoin: miter; stroke-miterlimit: 4; fill: rgb(208,51,58); fill-rule: nonzero; opacity: 1;" vector-effect="non-scaling-stroke"  transform=" translate(-231.71, -251.91)" d="M 218.502 240.81 L 219.173 240.81 C 220.759 234.71 224.297 231.05 230.824 231.05 L 240.279 231.05 L 214.842 273.628 L 248.575 273.628 L 248.575 260.269 L 247.904 260.269 C 246.989 264.661 244.854 268.138 243.085 269.785 C 241.377 271.432 239.547 272.774 235.46 272.774 L 222.04 272.774 L 247.599 230.196 L 218.502 230.196 Z" stroke-linecap="round" />
</g>
<g transform="matrix(0.8 0 0 1 384.15 252.71)" id="YuffhncchNdxjbagcGtis"  >
<path style="stroke: none; stroke-width: 1; stroke-dasharray: none; stroke-linecap: butt; stroke-dashoffset: 0; stroke-linejoin: miter; stroke-miterlimit: 4; fill: rgb(255,255,255); fill-rule: nonzero; opacity: 1;" vector-effect="non-scaling-stroke"  transform=" translate(-384.12, -252.67)" d="M 369.504 267.672 L 379.695 267.672 L 379.695 267.07 L 374.922 267.07 L 374.922 239.421 L 375.008 239.421 L 393.111 268.274 L 393.971 268.274 L 393.971 237.658 L 398.744 237.658 L 398.744 237.056 L 388.553 237.056 L 388.553 237.658 L 393.326 237.658 L 393.326 260.491 L 393.24 260.491 L 378.706 237.056 L 369.504 237.056 L 369.504 237.658 L 374.277 237.658 L 374.277 267.07 L 369.504 267.07 Z" stroke-linecap="round" />
</g>
<g transform="matrix(0.79 0 0 1 345.23 252.25)" id="YWvBb0epW8Jpc3zb10kad"  >
<path style="stroke: none; stroke-width: 1; stroke-dasharray: none; stroke-linecap: butt; stroke-dashoffset: 0; stroke-linejoin: miter; stroke-miterlimit: 4; fill: rgb(255,255,255); fill-rule: nonzero; opacity: 1;" vector-effect="non-scaling-stroke"  transform=" translate(-345.31, -250.07)" d="M 330.351 250.096 C 330.351 258.395 336.672 266.092 345.315 266.092 C 353.7 266.092 360.279 258.137 360.279 250.096 C 360.279 240.937 352.883 234.057 345.315 234.057 C 338.263 234.057 330.351 240.937 330.351 250.096 Z M 335.296 250.096 C 335.296 242.184 336.93 234.659 345.315 234.659 C 353.7 234.659 355.334 242.184 355.334 250.096 C 355.334 260.416 352.711 265.49 345.315 265.49 C 337.919 265.49 335.296 260.416 335.296 250.096 Z" stroke-linecap="round" />
</g>
<g transform="matrix(0.77 0 0 0.97 306.96 252.02)" id="AwnHus8p9_MV8FmclF7M2"  >
<path style="stroke: none; stroke-width: 1; stroke-dasharray: none; stroke-linecap: butt; stroke-dashoffset: 0; stroke-linejoin: miter; stroke-miterlimit: 4; fill: rgb(255,255,255); fill-rule: nonzero; opacity: 1;" vector-effect="non-scaling-stroke"  transform=" translate(-308.99, -251.58)" d="M 295.854 266.893 L 322.127 266.893 L 322.127 257.476 L 321.654 257.476 C 320.364 262.894 317.612 266.291 312.581 266.291 L 304.927 266.291 L 304.927 236.879 L 309.7 236.879 L 309.7 236.277 L 295.854 236.277 L 295.854 236.879 L 300.627 236.879 L 300.627 266.291 L 295.854 266.291 Z" stroke-linecap="round" />
</g>
<g transform="matrix(0.81 0 0 1 270.31 251.98)" id="lWT8ag6NFTL2xXASWAfgX"  >
<path style="stroke: none; stroke-width: 1; stroke-dasharray: none; stroke-linecap: butt; stroke-dashoffset: 0; stroke-linejoin: miter; stroke-miterlimit: 4; fill: rgb(255,255,255); fill-rule: nonzero; opacity: 1;" vector-effect="non-scaling-stroke"  transform=" translate(-271.16, -251.98)" d="M 255.185 267.672 L 264.43 267.672 L 264.43 267.07 L 259.657 267.07 L 264.172 255.116 L 274.148 255.116 L 278.663 267.07 L 273.89 267.07 L 273.89 267.672 L 287.134 267.672 L 287.134 267.07 L 283.307 267.07 L 271.611 236.282 L 270.579 236.282 L 258.969 267.07 L 255.185 267.07 Z M 273.89 254.514 L 264.43 254.514 L 269.16 242.001 Z" stroke-linecap="round" />
</g>
<g transform="matrix(0.81 0 0 1 156.73 252.02)" id="KHap4zaZH1sgmfjrlo2C6"  >
<path style="stroke: none; stroke-width: 1; stroke-dasharray: none; stroke-linecap: butt; stroke-dashoffset: 0; stroke-linejoin: miter; stroke-miterlimit: 4; fill: rgb(255,255,255); fill-rule: nonzero; opacity: 1;" vector-effect="non-scaling-stroke"  transform=" translate(-271.16, -251.98)" d="M 255.185 267.672 L 264.43 267.672 L 264.43 267.07 L 259.657 267.07 L 264.172 255.116 L 274.148 255.116 L 278.663 267.07 L 273.89 267.07 L 273.89 267.672 L 287.134 267.672 L 287.134 267.07 L 283.307 267.07 L 271.611 236.282 L 270.579 236.282 L 258.969 267.07 L 255.185 267.07 Z M 273.89 254.514 L 264.43 254.514 L 269.16 242.001 Z" stroke-linecap="round" />
</g>
<g transform="matrix(0.84 0 0 1 192.82 252.39)" id="mdzmtzLvCSFrJ8ibT-bjD"  >
<path style="stroke: none; stroke-width: 1; stroke-dasharray: none; stroke-linecap: butt; stroke-dashoffset: 0; stroke-linejoin: miter; stroke-miterlimit: 4; fill: rgb(255,255,255); fill-rule: nonzero; opacity: 1;" vector-effect="non-scaling-stroke"  transform=" translate(-192.15, -252.39)" d="M 179.876 267.672 L 187.401 267.672 C 188.433 267.672 189.336 267.715 190.196 267.758 C 191.056 267.801 191.83 267.844 192.604 267.844 C 200.559 267.844 204.429 264.146 204.429 259.029 C 204.429 254.084 199.57 251.547 195.399 251.203 L 195.399 251.117 C 199.441 250.687 203.01 247.978 203.01 244.194 C 203.01 241.399 201.032 236.927 192.647 236.927 C 191.873 236.927 190.97 236.97 190.067 236.97 C 189.164 237.013 188.261 237.056 187.401 237.056 L 179.876 237.056 L 179.876 237.658 L 184.649 237.658 L 184.649 267.07 L 179.876 267.07 Z M 188.949 251.547 L 193.679 251.547 C 197.506 251.547 199.484 254.385 199.484 258.943 C 199.484 265.35 197.291 267.242 191.873 267.242 C 190.325 267.242 189.637 267.113 188.949 267.07 Z M 188.949 237.658 C 189.68 237.572 190.841 237.529 191.873 237.529 C 194.883 237.529 198.28 238.26 198.28 244.28 C 198.28 249.569 196.087 250.945 192.905 250.945 L 188.949 250.945 Z" stroke-linecap="round" />
</g>
<g transform="matrix(0.65 -0.28 0.28 0.65 209.98 212.99)" id="1Hv1tgQx9I2tVc9AmJtFK"  >
<path style="stroke: none; stroke-width: 1; stroke-dasharray: none; stroke-linecap: butt; stroke-dashoffset: 0; stroke-linejoin: miter; stroke-miterlimit: 4; fill: rgb(128,85,30); fill-rule: nonzero; opacity: 1;" vector-effect="non-scaling-stroke"  transform=" translate(0, 0)" d="M -2.1895 -4.805 C -2.0235 -4.805 -1.9051699999999998 -4.7669999999999995 -1.8344999999999998 -4.691 C -1.7638299999999998 -4.61567 -1.7284999999999997 -4.48767 -1.7284999999999997 -4.3069999999999995 L -1.7284999999999997 -4.3069999999999995 L -1.7284999999999997 -0.6589999999999994 C -1.4111699999999998 -1.1329999999999993 -1.0438299999999998 -1.4956699999999994 -0.6264999999999996 -1.7469999999999994 C -0.20849999999999963 -1.9983299999999995 0.24217000000000044 -2.1239999999999997 0.7255000000000005 -2.1239999999999997 L 0.7255000000000005 -2.1239999999999997 C 1.1695000000000004 -2.1239999999999997 1.5551700000000004 -2.0276699999999996 1.8825000000000005 -1.8349999999999997 C 2.2098300000000006 -1.6423299999999998 2.4611700000000005 -1.3653299999999997 2.6365000000000007 -1.0039999999999998 C 2.812500000000001 -0.6426699999999999 2.900500000000001 -0.21999999999999975 2.900500000000001 0.26400000000000023 L 2.900500000000001 0.26400000000000023 L 2.900500000000001 3.8080000000000003 L 3.501500000000001 3.8080000000000003 C 3.667500000000001 3.8080000000000003 3.785830000000001 3.846 3.856500000000001 3.922 C 3.9271700000000007 3.998 3.962500000000001 4.12633 3.962500000000001 4.307 L 3.962500000000001 4.307 C 3.962500000000001 4.4876700000000005 3.9271700000000007 4.615670000000001 3.856500000000001 4.691000000000001 C 3.785830000000001 4.767 3.667500000000001 4.805000000000001 3.501500000000001 4.805000000000001 L 3.501500000000001 4.805000000000001 L 1.1275000000000008 4.805000000000001 C 0.9615000000000008 4.805000000000001 0.8431700000000009 4.767 0.7725000000000009 4.691000000000001 C 0.7018300000000008 4.615670000000001 0.6665000000000009 4.4876700000000005 0.6665000000000009 4.307 L 0.6665000000000009 4.307 C 0.6665000000000009 4.12633 0.7018300000000008 3.998 0.7725000000000009 3.9220000000000006 C 0.8431700000000009 3.8460000000000005 0.9615000000000009 3.8080000000000007 1.1275000000000008 3.8080000000000007 L 1.1275000000000008 3.8080000000000007 L 1.8015000000000008 3.8080000000000007 L 1.8015000000000008 0.37300000000000066 C 1.8015000000000008 -0.06099999999999933 1.7015000000000007 -0.40499999999999936 1.5015000000000007 -0.6589999999999994 C 1.3015000000000008 -0.9129999999999994 1.0061700000000007 -1.0399999999999994 0.6155000000000007 -1.0399999999999994 L 0.6155000000000007 -1.0399999999999994 C 0.20017000000000074 -1.0399999999999994 -0.18682999999999927 -0.9203299999999994 -0.5454999999999993 -0.6809999999999994 C -0.9041699999999993 -0.4416699999999994 -1.1911699999999992 -0.11199999999999943 -1.4064999999999994 0.3080000000000006 C -1.6211699999999993 0.7273300000000006 -1.7284999999999995 1.1960000000000006 -1.7284999999999995 1.7140000000000004 L -1.7284999999999995 1.7140000000000004 L -1.7284999999999995 3.8080000000000003 L -1.0544999999999995 3.8080000000000003 C -0.8884999999999995 3.8080000000000003 -0.7701699999999996 3.846 -0.6994999999999996 3.922 C -0.6288299999999996 3.998 -0.5934999999999996 4.12633 -0.5934999999999996 4.307 L -0.5934999999999996 4.307 C -0.5934999999999996 4.4876700000000005 -0.6288299999999996 4.615670000000001 -0.6994999999999996 4.691000000000001 C -0.7701699999999996 4.767 -0.8884999999999996 4.805000000000001 -1.0544999999999995 4.805000000000001 L -1.0544999999999995 4.805000000000001 L -3.4274999999999998 4.805000000000001 C -3.5934999999999997 4.805000000000001 -3.71183 4.767 -3.7824999999999998 4.691000000000001 C -3.85383 4.615670000000001 -3.8895 4.4876700000000005 -3.8895 4.307 L -3.8895 4.307 C -3.8895 4.12633 -3.85383 3.998 -3.7824999999999998 3.9220000000000006 C -3.71183 3.8460000000000005 -3.5934999999999997 3.8080000000000007 -3.4274999999999998 3.8080000000000007 L -3.4274999999999998 3.8080000000000007 L -2.8274999999999997 3.8080000000000007 L -2.8274999999999997 -3.8089999999999993 L -3.5004999999999997 -3.8089999999999993 C -3.6664999999999996 -3.8089999999999993 -3.78517 -3.846669999999999 -3.8564999999999996 -3.9219999999999993 C -3.9271699999999994 -3.9979999999999993 -3.9624999999999995 -4.126329999999999 -3.9624999999999995 -4.3069999999999995 L -3.9624999999999995 -4.3069999999999995 C -3.9624999999999995 -4.48767 -3.9271699999999994 -4.61567 -3.8564999999999996 -4.691 C -3.7851699999999995 -4.7669999999999995 -3.6664999999999996 -4.805 -3.5004999999999997 -4.805 L -3.5004999999999997 -4.805 z" stroke-linecap="round" />
</g>
<g transform="matrix(0.75 -0.27 0.27 0.75 216.07 209.98)" id="_mZLaIdRO9iJz-PojP_wB"  >
<path style="stroke: none; stroke-width: 1; stroke-dasharray: none; stroke-linecap: butt; stroke-dashoffset: 0; stroke-linejoin: miter; stroke-miterlimit: 4; fill: rgb(128,85,30); fill-rule: nonzero; opacity: 1;" vector-effect="non-scaling-stroke"  transform=" translate(-216.28, -209.28)" d="M 216.112 208.237 Q 217.213 208.237 217.764 208.729 Q 218.315 209.221 218.315 210.188 L 218.315 210.188 L 218.315 212.52 Q 218.315 212.983 218.702 212.983 L 218.702 212.983 L 218.907 212.983 Q 219.106 212.983 219.191 213.074 Q 219.276 213.164 219.276 213.381 L 219.276 213.381 Q 219.276 213.598 219.191 213.689 Q 219.106 213.78 218.907 213.78 L 218.907 213.78 L 218.532 213.78 Q 218.151 213.78 217.878 213.589 Q 217.606 213.399 217.524 213.03 L 217.524 213.03 Q 217.043 213.452 216.484 213.68 Q 215.924 213.909 215.297 213.909 L 215.297 213.909 Q 214.706 213.909 214.251 213.706 Q 213.797 213.504 213.54 213.118 Q 213.282 212.731 213.282 212.198 L 213.282 212.198 Q 213.282 211.272 213.944 210.829 Q 214.606 210.387 215.655 210.387 L 215.655 210.387 Q 216.586 210.387 217.436 210.686 L 217.436 210.686 L 217.436 210.188 Q 217.436 209.62 217.117 209.353 Q 216.797 209.086 216.088 209.086 L 216.088 209.086 Q 215.649 209.086 215.174 209.209 Q 214.7 209.332 214.272 209.549 L 214.272 209.549 Q 214.172 209.602 214.09 209.602 L 214.09 209.602 Q 213.897 209.602 213.768 209.321 L 213.768 209.321 Q 213.704 209.18 213.704 209.086 L 213.704 209.086 Q 213.704 208.881 213.92 208.77 L 213.92 208.77 Q 214.413 208.512 214.978 208.374 Q 215.543 208.237 216.112 208.237 L 216.112 208.237 Z M 215.661 211.213 Q 214.987 211.213 214.597 211.445 Q 214.207 211.676 214.207 212.18 L 214.207 212.18 Q 214.207 212.608 214.503 212.845 Q 214.799 213.082 215.332 213.082 L 215.332 213.082 Q 216.499 213.082 217.436 212.116 L 217.436 212.116 L 217.436 211.477 Q 217.038 211.348 216.581 211.281 Q 216.124 211.213 215.661 211.213 L 215.661 211.213 Z M 216.129 204.657 Q 216.534 204.657 216.865 204.844 Q 217.196 205.032 217.383 205.363 Q 217.571 205.694 217.571 206.098 L 217.571 206.098 Q 217.571 206.502 217.383 206.833 Q 217.196 207.164 216.865 207.352 Q 216.534 207.539 216.129 207.539 L 216.129 207.539 Q 215.725 207.539 215.394 207.352 Q 215.063 207.164 214.875 206.833 Q 214.688 206.502 214.688 206.098 L 214.688 206.098 Q 214.688 205.694 214.875 205.363 Q 215.063 205.032 215.394 204.844 Q 215.725 204.657 216.129 204.657 L 216.129 204.657 Z M 216.129 205.43 Q 215.825 205.43 215.643 205.612 Q 215.461 205.793 215.461 206.098 L 215.461 206.098 Q 215.461 206.403 215.643 206.584 Q 215.825 206.766 216.129 206.766 L 216.129 206.766 Q 216.434 206.766 216.616 206.584 Q 216.797 206.403 216.797 206.098 L 216.797 206.098 Q 216.797 205.793 216.616 205.612 Q 216.434 205.43 216.129 205.43 L 216.129 205.43 Z" stroke-linecap="round" />
</g>
<g transform="matrix(0.72 -0.11 0.11 0.72 222.65 209.56)" id="iLm0AcHv0NV4qBkAMQF5S"  >
<path style="stroke: none; stroke-width: 1; stroke-dasharray: none; stroke-linecap: butt; stroke-dashoffset: 0; stroke-linejoin: miter; stroke-miterlimit: 4; fill: rgb(128,85,30); fill-rule: nonzero; opacity: 1;" vector-effect="non-scaling-stroke"  transform=" translate(-222.91, -209.78)" d="M 223.67 206.319 Q 224.336 206.319 224.827 206.609 Q 225.318 206.898 225.582 207.44 Q 225.845 207.982 225.845 208.707 L 225.845 208.707 L 225.845 212.252 L 226.446 212.252 Q 226.695 212.252 226.801 212.365 Q 226.907 212.479 226.907 212.75 L 226.907 212.75 Q 226.907 213.021 226.801 213.134 Q 226.695 213.248 226.446 213.248 L 226.446 213.248 L 224.073 213.248 Q 223.824 213.248 223.717 213.134 Q 223.611 213.021 223.611 212.75 L 223.611 212.75 Q 223.611 212.479 223.717 212.365 Q 223.824 212.252 224.073 212.252 L 224.073 212.252 L 224.747 212.252 L 224.747 208.817 Q 224.747 208.165 224.446 207.784 Q 224.146 207.403 223.56 207.403 L 223.56 207.403 Q 222.937 207.403 222.399 207.762 Q 221.861 208.121 221.539 208.751 Q 221.216 209.381 221.216 210.157 L 221.216 210.157 L 221.216 212.252 L 221.89 212.252 Q 222.139 212.252 222.245 212.365 Q 222.352 212.479 222.352 212.75 L 222.352 212.75 Q 222.352 213.021 222.245 213.134 Q 222.139 213.248 221.89 213.248 L 221.89 213.248 L 219.517 213.248 Q 219.268 213.248 219.162 213.134 Q 219.056 213.021 219.056 212.75 L 219.056 212.75 Q 219.056 212.479 219.162 212.365 Q 219.268 212.252 219.517 212.252 L 219.517 212.252 L 220.118 212.252 L 220.118 207.476 L 219.371 207.476 Q 219.122 207.476 219.015 207.363 Q 218.909 207.249 218.909 206.978 L 218.909 206.978 Q 218.909 206.707 219.015 206.594 Q 219.122 206.48 219.371 206.48 L 219.371 206.48 L 220.682 206.48 Q 220.931 206.48 221.037 206.594 Q 221.143 206.707 221.143 206.978 L 221.143 206.978 L 221.143 207.857 Q 221.626 207.11 222.275 206.715 Q 222.923 206.319 223.67 206.319 L 223.67 206.319 Z" stroke-linecap="round" />
</g>
<g transform="matrix(0.69 0 0 0.69 229.1 208.13)" id="zncP5AuLulnpX39wqCSY7"  >
<path style="stroke: none; stroke-width: 1; stroke-dasharray: none; stroke-linecap: butt; stroke-dashoffset: 0; stroke-linejoin: miter; stroke-miterlimit: 4; fill: rgb(128,85,30); fill-rule: nonzero; opacity: 1;" vector-effect="non-scaling-stroke"  transform=" translate(-228.88, -207.69)" d="M 231.181 202.808 Q 231.43 202.808 231.536 202.921 Q 231.642 203.035 231.642 203.306 L 231.642 203.306 L 231.642 211.421 L 232.243 211.421 Q 232.492 211.421 232.598 211.535 Q 232.704 211.648 232.704 211.919 L 232.704 211.919 Q 232.704 212.19 232.598 212.304 Q 232.492 212.417 232.243 212.417 L 232.243 212.417 L 231.078 212.417 Q 230.829 212.417 230.723 212.304 Q 230.617 212.19 230.617 211.919 L 230.617 211.919 L 230.617 211.333 Q 230.155 211.934 229.547 212.256 Q 228.939 212.578 228.222 212.578 L 228.222 212.578 Q 227.313 212.578 226.596 212.15 Q 225.878 211.721 225.468 210.919 Q 225.058 210.117 225.058 209.033 L 225.058 209.033 Q 225.058 207.949 225.468 207.147 Q 225.878 206.345 226.596 205.917 Q 227.313 205.488 228.222 205.488 L 228.222 205.488 Q 229.599 205.488 230.543 206.697 L 230.543 206.697 L 230.543 203.804 L 229.357 203.804 Q 229.108 203.804 229.002 203.69 Q 228.895 203.577 228.895 203.306 L 228.895 203.306 Q 228.895 203.035 229.002 202.921 Q 229.108 202.808 229.357 202.808 L 229.357 202.808 L 231.181 202.808 Z M 228.295 206.572 Q 227.643 206.572 227.174 206.884 Q 226.705 207.195 226.46 207.752 Q 226.215 208.308 226.215 209.033 L 226.215 209.033 Q 226.215 209.758 226.46 210.315 Q 226.705 210.872 227.174 211.183 Q 227.643 211.494 228.295 211.494 L 228.295 211.494 Q 228.947 211.494 229.456 211.201 Q 229.965 210.908 230.254 210.352 Q 230.543 209.795 230.543 209.033 L 230.543 209.033 Q 230.543 208.272 230.254 207.715 Q 229.965 207.158 229.456 206.865 Q 228.947 206.572 228.295 206.572 L 228.295 206.572 Z" stroke-linecap="round" />
</g>
<g transform="matrix(0.74 0 0 0.74 235.4 209.09)" id="ju4ySjEUvSisIS9UhlA5Z"  >
<path style="stroke: none; stroke-width: 1; stroke-dasharray: none; stroke-linecap: butt; stroke-dashoffset: 0; stroke-linejoin: miter; stroke-miterlimit: 4; fill: rgb(128,85,30); fill-rule: nonzero; opacity: 1;" vector-effect="non-scaling-stroke"  transform=" translate(-235.57, -209.11)" d="M 239.239 205.65 Q 239.488 205.65 239.594 205.763 Q 239.7 205.877 239.7 206.148 L 239.7 206.148 Q 239.7 206.419 239.594 206.532 Q 239.488 206.646 239.239 206.646 L 239.239 206.646 L 238.777 206.646 L 236.411 212.102 Q 236.309 212.351 236.107 212.465 Q 235.906 212.578 235.547 212.578 L 235.547 212.578 Q 235.196 212.578 235.002 212.465 Q 234.807 212.351 234.698 212.102 L 234.698 212.102 L 232.354 206.646 L 231.9 206.646 Q 231.651 206.646 231.545 206.532 Q 231.438 206.419 231.438 206.148 L 231.438 206.148 Q 231.438 205.877 231.545 205.763 Q 231.651 205.65 231.9 205.65 L 231.9 205.65 L 234.493 205.65 Q 234.742 205.65 234.848 205.763 Q 234.954 205.877 234.954 206.148 L 234.954 206.148 Q 234.954 206.419 234.848 206.532 Q 234.742 206.646 234.493 206.646 L 234.493 206.646 L 233.555 206.646 L 235.555 211.421 L 237.576 206.646 L 236.939 206.646 Q 236.69 206.646 236.584 206.532 Q 236.477 206.419 236.477 206.148 L 236.477 206.148 Q 236.477 205.877 236.584 205.763 Q 236.69 205.65 236.939 205.65 L 236.939 205.65 L 239.239 205.65 Z" stroke-linecap="round" />
</g>
<g transform="matrix(0.73 0.08 -0.08 0.73 241.74 209.63)" id="HAYXD1WYJsb6NUnNFvqPs"  >
<path style="stroke: none; stroke-width: 1; stroke-dasharray: none; stroke-linecap: butt; stroke-dashoffset: 0; stroke-linejoin: miter; stroke-miterlimit: 4; fill: rgb(128,85,30); fill-rule: nonzero; opacity: 1;" vector-effect="non-scaling-stroke"  transform=" translate(-241.74, -209.86)" d="M 243.502 206.319 Q 244.615 206.319 245.128 207.169 Q 245.64 208.018 245.684 209.571 L 245.684 209.571 Q 245.684 209.82 245.578 209.923 Q 245.472 210.025 245.223 210.025 L 245.223 210.025 L 242.301 210.025 Q 242.337 212.347 243.502 212.347 L 243.502 212.347 Q 243.853 212.347 244.146 212.212 Q 244.439 212.076 244.747 211.776 L 244.747 211.776 Q 244.871 211.651 245.032 211.651 L 245.032 211.651 Q 245.26 211.651 245.443 211.878 L 245.443 211.878 Q 245.596 212.061 245.596 212.245 L 245.596 212.245 Q 245.596 212.45 245.399 212.633 L 245.399 212.633 Q 244.996 213.014 244.512 213.211 Q 244.029 213.409 243.502 213.409 L 243.502 213.409 Q 242.308 213.409 241.715 212.354 L 241.715 212.354 Q 241.363 212.845 240.832 213.127 Q 240.301 213.409 239.708 213.409 L 239.708 213.409 Q 239.136 213.409 238.704 213.175 Q 238.272 212.94 238.038 212.508 Q 237.803 212.076 237.803 211.49 L 237.803 211.49 Q 237.803 210.267 238.715 209.633 Q 239.627 209 241.202 209 L 241.202 209 L 241.202 208.839 Q 241.202 208.099 240.997 207.74 Q 240.792 207.381 240.242 207.381 L 240.242 207.381 Q 239.913 207.381 239.598 207.506 Q 239.283 207.63 238.946 207.887 L 238.946 207.887 Q 238.807 207.996 238.638 207.996 L 238.638 207.996 Q 238.433 207.996 238.258 207.813 L 238.258 207.813 Q 238.104 207.638 238.104 207.447 L 238.104 207.447 Q 238.104 207.242 238.272 207.096 L 238.272 207.096 Q 239.173 206.319 240.242 206.319 L 240.242 206.319 Q 241.363 206.319 241.861 207.169 L 241.861 207.169 Q 242.154 206.751 242.568 206.535 Q 242.982 206.319 243.502 206.319 L 243.502 206.319 Z M 243.516 207.381 Q 242.996 207.381 242.711 207.762 Q 242.425 208.143 242.337 209 L 242.337 209 L 244.534 209 Q 244.483 208.209 244.241 207.795 Q 244 207.381 243.516 207.381 L 243.516 207.381 Z M 241.202 210.025 Q 240.03 210.025 239.477 210.392 Q 238.924 210.758 238.924 211.49 L 238.924 211.49 Q 238.924 211.908 239.144 212.142 Q 239.364 212.376 239.737 212.376 L 239.737 212.376 Q 240.147 212.376 240.48 212.168 Q 240.814 211.959 241.008 211.589 Q 241.202 211.219 241.202 210.758 L 241.202 210.758 L 241.202 210.025 Z" stroke-linecap="round" />
</g>
<g transform="matrix(0.7 0.15 -0.15 0.7 248.27 211.05)" id="SP8VkWA-SRE-QTGI-50qW"  >
<path style="stroke: none; stroke-width: 1; stroke-dasharray: none; stroke-linecap: butt; stroke-dashoffset: 0; stroke-linejoin: miter; stroke-miterlimit: 4; fill: rgb(128,85,30); fill-rule: nonzero; opacity: 1;" vector-effect="non-scaling-stroke"  transform=" translate(-249.46, -210.63)" d="M 251.613 207.166 Q 252.184 207.166 252.682 207.459 L 252.682 207.459 Q 252.975 207.634 252.975 207.913 L 252.975 207.913 Q 252.975 208.045 252.909 208.22 L 252.909 208.22 Q 252.755 208.638 252.484 208.638 L 252.484 208.638 Q 252.374 208.638 252.279 208.579 L 252.279 208.579 Q 251.92 208.382 251.51 208.382 L 251.51 208.382 Q 250.851 208.382 250.184 208.839 Q 249.518 209.297 249.089 210.059 Q 248.661 210.82 248.661 211.677 L 248.661 211.677 L 248.661 213.098 L 251.129 213.098 Q 251.378 213.098 251.484 213.212 Q 251.591 213.325 251.591 213.596 L 251.591 213.596 Q 251.591 213.867 251.484 213.981 Q 251.378 214.094 251.129 214.094 L 251.129 214.094 L 246.412 214.094 Q 246.163 214.094 246.057 213.981 Q 245.951 213.867 245.951 213.596 L 245.951 213.596 Q 245.951 213.325 246.057 213.212 Q 246.163 213.098 246.412 213.098 L 246.412 213.098 L 247.562 213.098 L 247.562 208.323 L 246.632 208.323 Q 246.383 208.323 246.277 208.209 Q 246.171 208.096 246.171 207.825 L 246.171 207.825 Q 246.171 207.554 246.277 207.44 Q 246.383 207.327 246.632 207.327 L 246.632 207.327 L 248.126 207.327 Q 248.375 207.327 248.482 207.44 Q 248.588 207.554 248.588 207.825 L 248.588 207.825 L 248.588 209.304 Q 248.939 208.66 249.437 208.176 Q 249.935 207.693 250.499 207.429 Q 251.063 207.166 251.613 207.166 L 251.613 207.166 Z" stroke-linecap="round" />
</g>
<g transform="matrix(0.6 0.24 -0.24 0.6 254.57 212.65)" id="3344qf9vKHuZ7wkWWUFip"  >
<path style="stroke: none; stroke-width: 1; stroke-dasharray: none; stroke-linecap: butt; stroke-dashoffset: 0; stroke-linejoin: miter; stroke-miterlimit: 4; fill: rgb(128,85,30); fill-rule: nonzero; opacity: 1;" vector-effect="non-scaling-stroke"  transform=" translate(-255.45, -212.54)" d="M 258.989 216.348 Q 259.238 216.348 259.344 216.461 Q 259.45 216.575 259.45 216.846 L 259.45 216.846 Q 259.45 217.117 259.344 217.23 Q 259.238 217.344 258.989 217.344 L 258.989 217.344 L 256.616 217.344 Q 256.367 217.344 256.261 217.23 Q 256.155 217.117 256.155 216.846 L 256.155 216.846 Q 256.155 216.575 256.261 216.461 Q 256.367 216.348 256.616 216.348 L 256.616 216.348 L 257.143 216.348 L 255.305 214.165 L 253.972 215.337 L 253.972 216.348 L 254.507 216.348 Q 254.756 216.348 254.862 216.461 Q 254.968 216.575 254.968 216.846 L 254.968 216.846 Q 254.968 217.117 254.862 217.23 Q 254.756 217.344 254.507 217.344 L 254.507 217.344 L 252.06 217.344 Q 251.811 217.344 251.705 217.23 Q 251.599 217.117 251.599 216.846 L 251.599 216.846 Q 251.599 216.575 251.705 216.461 Q 251.811 216.348 252.06 216.348 L 252.06 216.348 L 252.873 216.348 L 252.873 208.73 L 251.914 208.73 Q 251.665 208.73 251.559 208.617 Q 251.452 208.503 251.452 208.232 L 251.452 208.232 Q 251.452 207.961 251.559 207.848 Q 251.665 207.734 251.914 207.734 L 251.914 207.734 L 253.51 207.734 Q 253.759 207.734 253.866 207.848 Q 253.972 207.961 253.972 208.232 L 253.972 208.232 L 253.972 214.033 L 256.762 211.572 L 256.242 211.572 Q 255.993 211.572 255.887 211.459 Q 255.781 211.345 255.781 211.074 L 255.781 211.074 Q 255.781 210.803 255.887 210.69 Q 255.993 210.576 256.242 210.576 L 256.242 210.576 L 258.689 210.576 Q 258.938 210.576 259.044 210.69 Q 259.15 210.803 259.15 211.074 L 259.15 211.074 Q 259.15 211.345 259.044 211.459 Q 258.938 211.572 258.689 211.572 L 258.689 211.572 L 258.257 211.572 L 256.103 213.469 L 258.564 216.348 L 258.989 216.348 Z" stroke-linecap="round" />
</g>
<g transform="matrix(1.09 0 0 1.09 262.09 217.29)" id="oNnhOUROlV5ln7x6NmOUW"  >
<path style="stroke: rgb(66,54,75); stroke-width: 0; stroke-dasharray: none; stroke-linecap: butt; stroke-dashoffset: 0; stroke-linejoin: miter; stroke-miterlimit: 4; fill: rgb(128,85,30); fill-rule: nonzero; opacity: 1;" vector-effect="non-scaling-stroke"  transform=" translate(0, 0)" d="M 0 -1.26113 C 0.69614 -1.26113 1.26113 -0.6961400000000001 1.26113 0 C 1.26113 0.69614 0.6961400000000001 1.26113 0 1.26113 C -0.69614 1.26113 -1.26113 0.6961400000000001 -1.26113 0 C -1.26113 -0.69614 -0.6961400000000001 -1.26113 0 -1.26113 z" stroke-linecap="round" />
</g>
<g transform="matrix(1.23 0 0 1.23 202.17 217.84)" id="fu0s8Vjg4emmJSkN2BuNm"  >
<path style="stroke: rgb(136,170,153); stroke-width: 0; stroke-dasharray: none; stroke-linecap: butt; stroke-dashoffset: 0; stroke-linejoin: miter; stroke-miterlimit: 4; fill: rgb(128,85,30); fill-rule: nonzero; opacity: 1;" vector-effect="non-scaling-stroke"  transform=" translate(0, 0)" d="M 0 -1.18694 C 0.65519 -1.18694 1.18694 -0.6551900000000002 1.18694 0 C 1.18694 0.65519 0.6551900000000002 1.18694 0 1.18694 C -0.65519 1.18694 -1.18694 0.6551900000000002 -1.18694 0 C -1.18694 -0.65519 -0.6551900000000002 -1.18694 0 -1.18694 z" stroke-linecap="round" />
</g>
<g transform="matrix(0.83 0.67 -0.59 0.73 198.89 286.98)" id="gNpfYq53wLuxYk12qyoMt"  >
<path style="stroke: none; stroke-width: 1; stroke-dasharray: none; stroke-linecap: butt; stroke-dashoffset: 0; stroke-linejoin: miter; stroke-miterlimit: 4; fill: rgb(128,85,30); fill-rule: nonzero; opacity: 1;" vector-effect="non-scaling-stroke"  transform=" translate(-197.32, -286.99)" d="M 198.855 283.733 Q 199.021 283.733 199.092 283.809 Q 199.162 283.884 199.162 284.065 L 199.162 284.065 L 199.162 289.475 L 199.563 289.475 Q 199.729 289.475 199.8 289.551 Q 199.87 289.627 199.87 289.807 L 199.87 289.807 Q 199.87 289.988 199.8 290.064 Q 199.729 290.139 199.563 290.139 L 199.563 290.139 L 198.787 290.139 Q 198.62 290.139 198.55 290.064 Q 198.479 289.988 198.479 289.807 L 198.479 289.807 L 198.479 289.417 Q 198.171 289.817 197.766 290.032 Q 197.361 290.247 196.882 290.247 L 196.882 290.247 Q 196.277 290.247 195.798 289.961 Q 195.32 289.675 195.046 289.141 Q 194.773 288.606 194.773 287.883 L 194.773 287.883 Q 194.773 287.161 195.046 286.626 Q 195.32 286.091 195.798 285.806 Q 196.277 285.52 196.882 285.52 L 196.882 285.52 Q 197.8 285.52 198.43 286.326 L 198.43 286.326 L 198.43 284.397 L 197.639 284.397 Q 197.473 284.397 197.402 284.321 Q 197.331 284.246 197.331 284.065 L 197.331 284.065 Q 197.331 283.884 197.402 283.809 Q 197.473 283.733 197.639 283.733 L 197.639 283.733 L 198.855 283.733 Z M 196.931 286.243 Q 196.496 286.243 196.184 286.45 Q 195.871 286.658 195.708 287.029 Q 195.544 287.4 195.544 287.883 L 195.544 287.883 Q 195.544 288.367 195.708 288.738 Q 195.871 289.109 196.184 289.317 Q 196.496 289.524 196.931 289.524 L 196.931 289.524 Q 197.366 289.524 197.705 289.329 Q 198.044 289.133 198.237 288.762 Q 198.43 288.391 198.43 287.883 L 198.43 287.883 Q 198.43 287.376 198.237 287.005 Q 198.044 286.633 197.705 286.438 Q 197.366 286.243 196.931 286.243 L 196.931 286.243 Z" stroke-linecap="round" />
</g>
<g transform="matrix(0.82 0.57 -0.57 0.82 203.63 291.54)" id="Ho1uSBSGY8p88GSePjPb4"  >
<path style="stroke: none; stroke-width: 1; stroke-dasharray: none; stroke-linecap: butt; stroke-dashoffset: 0; stroke-linejoin: miter; stroke-miterlimit: 4; fill: rgb(128,85,30); fill-rule: nonzero; opacity: 1;" vector-effect="non-scaling-stroke"  transform=" translate(-202.42, -292.38)" d="M 202.446 290.019 Q 203.154 290.019 203.654 290.305 Q 204.155 290.59 204.423 291.096 Q 204.692 291.601 204.731 292.26 L 204.731 292.26 Q 204.731 292.426 204.66 292.495 Q 204.589 292.563 204.423 292.563 L 204.423 292.563 L 200.888 292.563 Q 200.922 293.291 201.32 293.664 Q 201.718 294.038 202.446 294.038 L 202.446 294.038 Q 202.895 294.038 203.335 293.923 Q 203.774 293.808 204.106 293.618 L 204.106 293.618 Q 204.189 293.574 204.257 293.574 L 204.257 293.574 Q 204.428 293.574 204.536 293.833 L 204.536 293.833 Q 204.58 293.935 204.58 294.018 L 204.58 294.018 Q 204.58 294.214 204.365 294.321 L 204.365 294.321 Q 203.989 294.511 203.476 294.629 Q 202.963 294.746 202.446 294.746 L 202.446 294.746 Q 201.709 294.746 201.186 294.463 Q 200.664 294.179 200.39 293.647 Q 200.117 293.115 200.117 292.382 L 200.117 292.382 Q 200.117 291.684 200.415 291.147 Q 200.713 290.61 201.24 290.315 Q 201.767 290.019 202.446 290.019 L 202.446 290.019 Z M 202.446 290.727 Q 201.845 290.727 201.452 291.032 Q 201.059 291.338 200.937 291.88 L 200.937 291.88 L 203.921 291.88 Q 203.818 291.318 203.449 291.023 Q 203.081 290.727 202.446 290.727 L 202.446 290.727 Z" stroke-linecap="round" />
</g>
<g transform="matrix(0.87 0.5 -0.5 0.87 208.21 294.75)" id="Q6-wlpce8x5bAwtdcXMqt"  >
<path style="stroke: none; stroke-width: 1; stroke-dasharray: none; stroke-linecap: butt; stroke-dashoffset: 0; stroke-linejoin: miter; stroke-miterlimit: 4; fill: rgb(128,85,30); fill-rule: nonzero; opacity: 1;" vector-effect="non-scaling-stroke"  transform=" translate(-208.01, -296.38)" d="M 209.545 294.019 Q 209.746 294.019 209.829 294.092 Q 209.912 294.166 209.912 294.337 L 209.912 294.337 L 209.912 295.264 Q 209.912 295.435 209.829 295.508 Q 209.746 295.582 209.545 295.582 L 209.545 295.582 Q 209.379 295.582 209.311 295.455 L 209.311 295.455 Q 209.101 295.054 208.701 294.891 Q 208.3 294.727 207.685 294.727 L 207.685 294.727 Q 207.211 294.727 206.945 294.896 Q 206.679 295.064 206.679 295.367 L 206.679 295.367 Q 206.679 295.523 206.779 295.621 Q 206.879 295.718 207.075 295.782 L 207.075 295.782 Q 207.236 295.836 207.448 295.865 Q 207.661 295.894 207.998 295.928 L 207.998 295.928 Q 208.471 295.982 208.762 296.028 Q 209.052 296.075 209.311 296.168 L 209.311 296.168 Q 209.702 296.309 209.919 296.578 Q 210.136 296.846 210.136 297.286 L 210.136 297.286 Q 210.136 297.725 209.914 298.055 Q 209.692 298.384 209.265 298.565 Q 208.837 298.746 208.242 298.746 L 208.242 298.746 Q 207.714 298.746 207.314 298.599 Q 206.914 298.453 206.616 298.155 L 206.616 298.155 L 206.616 298.428 Q 206.616 298.599 206.533 298.673 Q 206.45 298.746 206.25 298.746 L 206.25 298.746 Q 206.049 298.746 205.966 298.673 Q 205.883 298.599 205.883 298.428 L 205.883 298.428 L 205.883 297.256 Q 205.883 297.086 205.966 297.012 Q 206.049 296.939 206.25 296.939 L 206.25 296.939 Q 206.352 296.939 206.411 296.985 Q 206.469 297.032 206.513 297.139 L 206.513 297.139 Q 206.689 297.608 207.099 297.823 Q 207.509 298.038 208.193 298.038 L 208.193 298.038 Q 208.759 298.038 209.062 297.833 Q 209.365 297.628 209.365 297.286 L 209.365 297.286 Q 209.365 297.12 209.257 297.012 Q 209.15 296.905 208.95 296.837 L 208.95 296.837 Q 208.779 296.783 208.557 296.746 Q 208.334 296.71 207.993 296.675 L 207.993 296.675 Q 207.534 296.627 207.226 296.573 Q 206.918 296.519 206.66 296.417 L 206.66 296.417 Q 206.303 296.275 206.105 296.024 Q 205.908 295.772 205.908 295.367 L 205.908 295.367 Q 205.908 294.942 206.13 294.637 Q 206.352 294.332 206.745 294.175 Q 207.138 294.019 207.636 294.019 L 207.636 294.019 Q 208.11 294.019 208.503 294.161 Q 208.896 294.302 209.179 294.556 L 209.179 294.556 L 209.179 294.337 Q 209.179 294.166 209.262 294.092 Q 209.345 294.019 209.545 294.019 L 209.545 294.019 Z" stroke-linecap="round" />
</g>
<g transform="matrix(0.9 0.44 -0.44 0.9 214.09 296.39)" id="5vKYUZAPB36aQN17xeQtc"  >
<path style="stroke: none; stroke-width: 1; stroke-dasharray: none; stroke-linecap: butt; stroke-dashoffset: 0; stroke-linejoin: miter; stroke-miterlimit: 4; fill: rgb(128,85,30); fill-rule: nonzero; opacity: 1;" vector-effect="non-scaling-stroke"  transform=" translate(-213.92, -297.5)" d="M 213.96 296.318 Q 214.126 296.318 214.197 296.394 Q 214.268 296.47 214.268 296.651 L 214.268 296.651 L 214.268 300.166 L 215.835 300.166 Q 216.001 300.166 216.072 300.242 Q 216.143 300.318 216.143 300.498 L 216.143 300.498 Q 216.143 300.679 216.072 300.755 Q 216.001 300.83 215.835 300.83 L 215.835 300.83 L 212.007 300.83 Q 211.841 300.83 211.77 300.755 Q 211.699 300.679 211.699 300.498 L 211.699 300.498 Q 211.699 300.318 211.77 300.242 Q 211.841 300.166 212.007 300.166 L 212.007 300.166 L 213.535 300.166 L 213.535 296.983 L 212.3 296.983 Q 212.134 296.983 212.063 296.907 Q 211.992 296.831 211.992 296.651 L 211.992 296.651 Q 211.992 296.47 212.063 296.394 Q 212.134 296.318 212.3 296.318 L 212.3 296.318 L 213.96 296.318 Z M 213.804 294.175 Q 214.072 294.175 214.17 294.246 Q 214.268 294.317 214.268 294.492 L 214.268 294.492 L 214.268 295.127 Q 214.268 295.303 214.17 295.374 Q 214.072 295.444 213.804 295.444 L 213.804 295.444 Q 213.535 295.444 213.437 295.374 Q 213.34 295.303 213.34 295.127 L 213.34 295.127 L 213.34 294.492 Q 213.34 294.317 213.437 294.246 Q 213.535 294.175 213.804 294.175 L 213.804 294.175 Z" stroke-linecap="round" />
</g>
<g transform="matrix(0.92 0.25 -0.25 0.92 218.29 299.78)" id="ZA2T8OkXFkaA_8QX3vbgQ"  >
<path style="stroke: none; stroke-width: 1; stroke-dasharray: none; stroke-linecap: butt; stroke-dashoffset: 0; stroke-linejoin: miter; stroke-miterlimit: 4; fill: rgb(128,85,30); fill-rule: nonzero; opacity: 1;" vector-effect="non-scaling-stroke"  transform=" translate(-217.75, -300.33)" d="M 217.316 297.019 Q 217.794 297.019 218.199 297.234 Q 218.605 297.449 218.912 297.849 L 218.912 297.849 L 218.912 297.459 Q 218.912 297.278 218.983 297.202 Q 219.054 297.127 219.22 297.127 L 219.22 297.127 L 219.996 297.127 Q 220.162 297.127 220.233 297.202 Q 220.304 297.278 220.304 297.459 L 220.304 297.459 Q 220.304 297.639 220.233 297.715 Q 220.162 297.791 219.996 297.791 L 219.996 297.791 L 219.596 297.791 L 219.596 301.785 Q 219.596 302.366 219.349 302.783 Q 219.103 303.201 218.634 303.421 Q 218.165 303.64 217.506 303.64 L 217.506 303.64 Q 217.037 303.64 216.559 303.56 Q 216.08 303.479 215.665 303.328 L 215.665 303.328 Q 215.475 303.259 215.475 303.069 L 215.475 303.069 Q 215.475 302.991 215.514 302.874 L 215.514 302.874 Q 215.602 302.605 215.792 302.605 L 215.792 302.605 Q 215.846 302.605 215.9 302.625 L 215.9 302.625 Q 216.28 302.761 216.7 302.84 Q 217.12 302.918 217.506 302.918 L 217.506 302.918 Q 218.18 302.918 218.522 302.598 Q 218.863 302.278 218.863 301.721 L 218.863 301.721 L 218.863 300.74 Q 218.258 301.502 217.316 301.502 L 217.316 301.502 Q 216.71 301.502 216.232 301.231 Q 215.753 300.96 215.48 300.452 Q 215.206 299.944 215.206 299.26 L 215.206 299.26 Q 215.206 298.577 215.48 298.069 Q 215.753 297.561 216.232 297.29 Q 216.71 297.019 217.316 297.019 L 217.316 297.019 Z M 217.364 297.742 Q 216.93 297.742 216.617 297.935 Q 216.305 298.128 216.141 298.472 Q 215.978 298.816 215.978 299.26 L 215.978 299.26 Q 215.978 299.705 216.141 300.049 Q 216.305 300.393 216.617 300.586 Q 216.93 300.779 217.364 300.779 L 217.364 300.779 Q 217.799 300.779 218.138 300.598 Q 218.478 300.418 218.671 300.073 Q 218.863 299.729 218.863 299.26 L 218.863 299.26 Q 218.863 298.792 218.671 298.447 Q 218.478 298.103 218.138 297.923 Q 217.799 297.742 217.364 297.742 L 217.364 297.742 Z" stroke-linecap="round" />
</g>
<g transform="matrix(0.96 0 0 0.96 224.03 300.12)" id="YMh2c9OKy2Qrhm-Eskcj6"  >
<path style="stroke: none; stroke-width: 1; stroke-dasharray: none; stroke-linecap: butt; stroke-dashoffset: 0; stroke-linejoin: miter; stroke-miterlimit: 4; fill: rgb(128,85,30); fill-rule: nonzero; opacity: 1;" vector-effect="non-scaling-stroke"  transform=" translate(-224.13, -300.32)" d="M 224.642 298.015 Q 225.086 298.015 225.413 298.208 Q 225.741 298.401 225.916 298.762 Q 226.092 299.123 226.092 299.607 L 226.092 299.607 L 226.092 301.97 L 226.493 301.97 Q 226.659 301.97 226.729 302.046 Q 226.8 302.121 226.8 302.302 L 226.8 302.302 Q 226.8 302.483 226.729 302.558 Q 226.659 302.634 226.493 302.634 L 226.493 302.634 L 224.911 302.634 Q 224.745 302.634 224.674 302.558 Q 224.603 302.483 224.603 302.302 L 224.603 302.302 Q 224.603 302.121 224.674 302.046 Q 224.745 301.97 224.911 301.97 L 224.911 301.97 L 225.36 301.97 L 225.36 299.68 Q 225.36 299.245 225.16 298.991 Q 224.959 298.737 224.569 298.737 L 224.569 298.737 Q 224.154 298.737 223.795 298.977 Q 223.436 299.216 223.221 299.636 Q 223.006 300.056 223.006 300.573 L 223.006 300.573 L 223.006 301.97 L 223.455 301.97 Q 223.621 301.97 223.692 302.046 Q 223.763 302.121 223.763 302.302 L 223.763 302.302 Q 223.763 302.483 223.692 302.558 Q 223.621 302.634 223.455 302.634 L 223.455 302.634 L 221.873 302.634 Q 221.707 302.634 221.637 302.558 Q 221.566 302.483 221.566 302.302 L 221.566 302.302 Q 221.566 302.121 221.637 302.046 Q 221.707 301.97 221.873 301.97 L 221.873 301.97 L 222.274 301.97 L 222.274 298.786 L 221.776 298.786 Q 221.61 298.786 221.539 298.711 Q 221.468 298.635 221.468 298.454 L 221.468 298.454 Q 221.468 298.274 221.539 298.198 Q 221.61 298.122 221.776 298.122 L 221.776 298.122 L 222.65 298.122 Q 222.816 298.122 222.887 298.198 Q 222.957 298.274 222.957 298.454 L 222.957 298.454 L 222.957 299.04 Q 223.28 298.542 223.712 298.278 Q 224.144 298.015 224.642 298.015 L 224.642 298.015 Z" stroke-linecap="round" />
</g>
<g transform="matrix(0.98 -0.19 0.19 0.98 246.2 298.84)" id="XZy5R7pxi3kgIeePShfqf"  >
<path style="stroke: none; stroke-width: 1; stroke-dasharray: none; stroke-linecap: butt; stroke-dashoffset: 0; stroke-linejoin: miter; stroke-miterlimit: 4; fill: rgb(128,85,30); fill-rule: nonzero; opacity: 1;" vector-effect="non-scaling-stroke"  transform=" translate(-246.31, -298.79)" d="M 246.333 296.43 Q 247.041 296.43 247.541 296.715 Q 248.042 297.001 248.31 297.506 Q 248.579 298.012 248.618 298.671 L 248.618 298.671 Q 248.618 298.837 248.547 298.905 Q 248.476 298.974 248.31 298.974 L 248.31 298.974 L 244.775 298.974 Q 244.809 299.701 245.207 300.075 Q 245.605 300.448 246.333 300.448 L 246.333 300.448 Q 246.782 300.448 247.221 300.333 Q 247.661 300.219 247.993 300.028 L 247.993 300.028 Q 248.076 299.984 248.144 299.984 L 248.144 299.984 Q 248.315 299.984 248.422 300.243 L 248.422 300.243 Q 248.466 300.346 248.466 300.429 L 248.466 300.429 Q 248.466 300.624 248.252 300.731 L 248.252 300.731 Q 247.876 300.922 247.363 301.039 Q 246.85 301.156 246.333 301.156 L 246.333 301.156 Q 245.595 301.156 245.073 300.873 Q 244.55 300.59 244.277 300.058 Q 244.004 299.525 244.004 298.793 L 244.004 298.793 Q 244.004 298.095 244.301 297.558 Q 244.599 297.02 245.127 296.725 Q 245.654 296.43 246.333 296.43 L 246.333 296.43 Z M 246.333 297.138 Q 245.732 297.138 245.339 297.443 Q 244.946 297.748 244.824 298.29 L 244.824 298.29 L 247.807 298.29 Q 247.705 297.728 247.336 297.433 Q 246.967 297.138 246.333 297.138 L 246.333 297.138 Z" stroke-linecap="round" />
</g>
<g transform="matrix(0.9 -0.44 0.44 0.9 251.86 297.07)" id="Yr1syuwGIpEQCb2iTepCc"  >
<path style="stroke: none; stroke-width: 1; stroke-dasharray: none; stroke-linecap: butt; stroke-dashoffset: 0; stroke-linejoin: miter; stroke-miterlimit: 4; fill: rgb(128,85,30); fill-rule: nonzero; opacity: 1;" vector-effect="non-scaling-stroke"  transform=" translate(-251.77, -296.48)" d="M 254.217 294.17 Q 254.383 294.17 254.454 294.246 Q 254.525 294.322 254.525 294.502 L 254.525 294.502 Q 254.525 294.683 254.454 294.759 Q 254.383 294.834 254.217 294.834 L 254.217 294.834 L 253.909 294.834 L 252.332 298.472 Q 252.264 298.638 252.13 298.714 Q 251.995 298.79 251.756 298.79 L 251.756 298.79 Q 251.522 298.79 251.392 298.714 Q 251.263 298.638 251.19 298.472 L 251.19 298.472 L 249.627 294.834 L 249.324 294.834 Q 249.158 294.834 249.088 294.759 Q 249.017 294.683 249.017 294.502 L 249.017 294.502 Q 249.017 294.322 249.088 294.246 Q 249.158 294.17 249.324 294.17 L 249.324 294.17 L 251.053 294.17 Q 251.219 294.17 251.29 294.246 Q 251.361 294.322 251.361 294.502 L 251.361 294.502 Q 251.361 294.683 251.29 294.759 Q 251.219 294.834 251.053 294.834 L 251.053 294.834 L 250.428 294.834 L 251.761 298.018 L 253.109 294.834 L 252.684 294.834 Q 252.518 294.834 252.447 294.759 Q 252.376 294.683 252.376 294.502 L 252.376 294.502 Q 252.376 294.322 252.447 294.246 Q 252.518 294.17 252.684 294.17 L 252.684 294.17 L 254.217 294.17 Z" stroke-linecap="round" />
</g>
<g transform="matrix(0.83 -0.56 0.56 0.83 257.3 294.12)" id="CC2ey9pMJVLx3E5QO4KEM"  >
<path style="stroke: none; stroke-width: 1; stroke-dasharray: none; stroke-linecap: butt; stroke-dashoffset: 0; stroke-linejoin: miter; stroke-miterlimit: 4; fill: rgb(128,85,30); fill-rule: nonzero; opacity: 1;" vector-effect="non-scaling-stroke"  transform=" translate(-257.3, -294.01)" d="M 257.324 291.649 Q 258.032 291.649 258.533 291.934 Q 259.033 292.22 259.302 292.725 Q 259.57 293.231 259.609 293.89 L 259.609 293.89 Q 259.609 294.056 259.538 294.124 Q 259.468 294.193 259.302 294.193 L 259.302 294.193 L 255.766 294.193 Q 255.801 294.92 256.199 295.294 Q 256.597 295.667 257.324 295.667 L 257.324 295.667 Q 257.773 295.667 258.213 295.553 Q 258.652 295.438 258.984 295.247 L 258.984 295.247 Q 259.067 295.203 259.136 295.203 L 259.136 295.203 Q 259.306 295.203 259.414 295.462 L 259.414 295.462 Q 259.458 295.565 259.458 295.648 L 259.458 295.648 Q 259.458 295.843 259.243 295.951 L 259.243 295.951 Q 258.867 296.141 258.354 296.258 Q 257.842 296.375 257.324 296.375 L 257.324 296.375 Q 256.587 296.375 256.064 296.092 Q 255.542 295.809 255.268 295.277 Q 254.995 294.744 254.995 294.012 L 254.995 294.012 Q 254.995 293.314 255.293 292.777 Q 255.591 292.24 256.118 291.944 Q 256.645 291.649 257.324 291.649 L 257.324 291.649 Z M 257.324 292.357 Q 256.723 292.357 256.33 292.662 Q 255.937 292.967 255.815 293.509 L 255.815 293.509 L 258.799 293.509 Q 258.696 292.948 258.327 292.652 Q 257.959 292.357 257.324 292.357 L 257.324 292.357 Z" stroke-linecap="round" />
</g>
<g transform="matrix(0.79 -0.62 0.62 0.79 262.09 290.95)" id="ul-d6usRpe4dfG7v7Lkhx"  >
<path style="stroke: none; stroke-width: 1; stroke-dasharray: none; stroke-linecap: butt; stroke-dashoffset: 0; stroke-linejoin: miter; stroke-miterlimit: 4; fill: rgb(128,85,30); fill-rule: nonzero; opacity: 1;" vector-effect="non-scaling-stroke"  transform=" translate(-262.34, -291.04)" d="M 262.852 288.734 Q 263.296 288.734 263.623 288.927 Q 263.95 289.12 264.126 289.481 Q 264.302 289.843 264.302 290.326 L 264.302 290.326 L 264.302 292.689 L 264.702 292.689 Q 264.868 292.689 264.939 292.765 Q 265.01 292.841 265.01 293.021 L 265.01 293.021 Q 265.01 293.202 264.939 293.278 Q 264.868 293.353 264.702 293.353 L 264.702 293.353 L 263.12 293.353 Q 262.954 293.353 262.883 293.278 Q 262.813 293.202 262.813 293.021 L 262.813 293.021 Q 262.813 292.841 262.883 292.765 Q 262.954 292.689 263.12 292.689 L 263.12 292.689 L 263.569 292.689 L 263.569 290.399 Q 263.569 289.965 263.369 289.711 Q 263.169 289.457 262.778 289.457 L 262.778 289.457 Q 262.363 289.457 262.005 289.696 Q 261.646 289.935 261.431 290.355 Q 261.216 290.775 261.216 291.293 L 261.216 291.293 L 261.216 292.689 L 261.665 292.689 Q 261.831 292.689 261.902 292.765 Q 261.973 292.841 261.973 293.021 L 261.973 293.021 Q 261.973 293.202 261.902 293.278 Q 261.831 293.353 261.665 293.353 L 261.665 293.353 L 260.083 293.353 Q 259.917 293.353 259.846 293.278 Q 259.776 293.202 259.776 293.021 L 259.776 293.021 Q 259.776 292.841 259.846 292.765 Q 259.917 292.689 260.083 292.689 L 260.083 292.689 L 260.484 292.689 L 260.484 289.506 L 259.985 289.506 Q 259.819 289.506 259.749 289.43 Q 259.678 289.354 259.678 289.174 L 259.678 289.174 Q 259.678 288.993 259.749 288.917 Q 259.819 288.842 259.985 288.842 L 259.985 288.842 L 260.86 288.842 Q 261.026 288.842 261.096 288.917 Q 261.167 288.993 261.167 289.174 L 261.167 289.174 L 261.167 289.76 Q 261.489 289.262 261.922 288.998 Q 262.354 288.734 262.852 288.734 L 262.852 288.734 Z" stroke-linecap="round" />
</g>
<g transform="matrix(0.69 -0.72 0.72 0.69 265.76 286.71)" id="eHUBrq1C092nKdvDQKTqp"  >
<path style="stroke: none; stroke-width: 1; stroke-dasharray: none; stroke-linecap: butt; stroke-dashoffset: 0; stroke-linejoin: miter; stroke-miterlimit: 4; fill: rgb(128,85,30); fill-rule: nonzero; opacity: 1;" vector-effect="non-scaling-stroke"  transform=" translate(-266.93, -286.18)" d="M 266.203 283.171 Q 266.403 283.171 266.486 283.244 Q 266.569 283.318 266.569 283.489 L 266.569 283.489 L 266.569 284.953 L 268.576 284.953 Q 268.742 284.953 268.812 285.029 Q 268.883 285.105 268.883 285.286 L 268.883 285.286 Q 268.883 285.466 268.812 285.542 Q 268.742 285.618 268.576 285.618 L 268.576 285.618 L 266.569 285.618 L 266.569 287.395 Q 266.569 287.952 266.762 288.21 Q 266.955 288.469 267.433 288.469 L 267.433 288.469 Q 267.76 288.469 268.122 288.337 Q 268.483 288.205 268.82 287.986 L 268.82 287.986 Q 268.888 287.937 268.971 287.937 L 268.971 287.937 Q 269.137 287.937 269.254 288.161 L 269.254 288.161 Q 269.318 288.288 269.318 288.381 L 269.318 288.381 Q 269.318 288.537 269.157 288.635 L 269.157 288.635 Q 268.776 288.874 268.307 289.028 Q 267.838 289.182 267.433 289.182 L 267.433 289.182 Q 266.603 289.182 266.22 288.75 Q 265.836 288.318 265.836 287.458 L 265.836 287.458 L 265.836 285.618 L 264.845 285.618 Q 264.679 285.618 264.608 285.542 Q 264.538 285.466 264.538 285.286 L 264.538 285.286 Q 264.538 285.105 264.608 285.029 Q 264.679 284.953 264.845 284.953 L 264.845 284.953 L 265.836 284.953 L 265.836 283.489 Q 265.836 283.318 265.919 283.244 Q 266.002 283.171 266.203 283.171 L 266.203 283.171 Z" stroke-linecap="round" />
</g>
<g transform="matrix(1 0 0 1 234.68 300.14)" id="tsSdfiXUDZt85b-Mj3BsP"  >
<path style="stroke: rgb(181,255,137); stroke-width: 0; stroke-dasharray: none; stroke-linecap: butt; stroke-dashoffset: 0; stroke-linejoin: miter; stroke-miterlimit: 4; fill: rgb(128,85,30); fill-rule: nonzero; opacity: 1;" vector-effect="non-scaling-stroke"  transform=" translate(-1.6, -1.6)" d="M 1.60257 0 C 2.48719 0 3.20514 0.71795 3.20514 1.60257 C 3.20514 2.48719 2.48719 3.20514 1.60257 3.20514 C 0.7179500000000001 3.20514 0 2.48719 0 1.60257 C 0 0.7179500000000001 0.71795 0 1.60257 0 z" stroke-linecap="round" />
</g>
</svg>